<svg width="500" height="100" version="1.1" viewBox="0 0 132.29 26.458" xmlns="http://www.w3.org/2000/svg">
 <path d="m-4e-7 -1.6482e-7v10.106l9.141-1.3968 4.0881-8.7095zm13.229 0 4.0881 8.7095 9.141 1.3968 9.141-1.3968 4.0881-8.7095zm26.458 0 4.0881 8.7095 9.141 1.3968 9.141-1.3968 4.0881-8.7095zm26.458 0 4.0881 8.7095 9.141 1.3968 9.141-1.3968 4.0881-8.7095zm26.458 0 4.0881 8.7095 9.141 1.3968 9.141-1.3968 4.0881-8.7095zm26.458 0 4.0881 8.7095 9.141 1.3968v-10.106zm13.229 10.106-6.6146 6.7794 1.5617 9.5725h5.0529zm-5.0529 16.352-8.1762-4.5196-8.1762 4.5196zm-16.352 0 1.5617-9.5725-6.6146-6.7794-6.6146 6.7794 1.5617 9.5725zm-10.106 0-8.1762-4.5196-8.1762 4.5196zm-16.352 0 1.5617-9.5725-6.6146-6.7794-6.6146 6.7794 1.5617 9.5725zm-10.106 0-8.1762-4.5196-8.1762 4.5196zm-16.352 0 1.5617-9.5725-6.6146-6.7794-6.6146 6.7794 1.5617 9.5725zm-10.106 0-8.1762-4.5196-8.1762 4.5196zm-16.352 0 1.5617-9.5725-6.6146-6.7794-6.6146 6.7794 1.5617 9.5725zm-10.106 0-8.1762-4.5196-8.1762 4.5196zm-16.352 0 1.5617-9.5725-6.6146-6.7794v16.352z" fill="#fafafc" fill-rule="evenodd" stroke-width=".47018"/>
 <path d="m13.229 0-4.0881 8.7095-9.141 1.3968 6.6146 6.7794-1.5617 9.5725 8.1762-4.5196 8.1762 4.5196-1.5617-9.5725 6.6146-6.7794-9.141-1.3968zm13.229 10.106 6.6146 6.7794-1.5617 9.5725 8.1762-4.5196 8.1762 4.5196-1.5617-9.5725 6.6146-6.7794-9.141-1.3968-4.0881-8.7095-4.0881 8.7095zm26.458 0 6.6146 6.7794-1.5617 9.5725 8.1762-4.5196 8.1762 4.5196-1.5617-9.5725 6.6146-6.7794-9.141-1.3968-4.0881-8.7095-4.0881 8.7095zm26.458 0 6.6146 6.7794-1.5617 9.5725 8.1762-4.5196 8.1762 4.5196-1.5617-9.5725 6.6146-6.7794-9.141-1.3968-4.0881-8.7095-4.0881 8.7095zm26.458 0 6.6146 6.7794-1.5617 9.5725 8.1762-4.5196 8.1762 4.5196-1.5617-9.5725 6.6146-6.7794-9.141-1.3968-4.0881-8.7095-4.0881 8.7095z" fill="none" stroke="#000" stroke-width=".52917"/>
</svg>
