<svg width="500" height="100" version="1.1" viewBox="0 0 132.29 26.458" xmlns="http://www.w3.org/2000/svg">
 <path transform="scale(.26458)" d="m0 0v38.197l34.549-5.2793 15.451-32.918h-50zm50 0 15.451 32.918 34.549 5.2793 34.549-5.2793 15.451-32.918h-100zm100 0 15.451 32.918 34.549 5.2793 34.549-5.2793 15.451-32.918h-100zm100 0 15.451 32.918 34.549 5.2793 34.549-5.2793 15.451-32.918h-100zm100 0 15.451 32.918 34.549 5.2793 34.549-5.2793 15.451-32.918h-100zm100 0 15.451 32.918 34.549 5.2793v-38.197h-50zm50 38.197-25 25.623 5.9023 36.18h19.098v-61.803zm-19.098 61.803-30.902-17.082-30.902 17.082h61.805zm-61.805 0 5.9023-36.18-25-25.623-25 25.623 5.9023 36.18h38.195zm-38.195 0-30.902-17.082-30.902 17.082h61.805zm-61.805 0 5.9023-36.18-25-25.623-25 25.623 5.9023 36.18h38.195zm-38.195 0-30.902-17.082-30.902 17.082h61.805zm-61.805 0 5.9023-36.18-25-25.623-25 25.623 5.9023 36.18h38.195zm-38.195 0-30.902-17.082-30.902 17.082h61.805zm-61.805 0 5.9023-36.18-25-25.623-25 25.623 5.9023 36.18h38.195zm-38.195 0-30.902-17.082-30.902 17.082h61.805zm-61.805 0 5.9023-36.18-25-25.623v61.803h19.098z" fill="#fff" fill-rule="evenodd" stroke-width="1.777"/>
</svg>
